<svg xmlns="http://www.w3.org/2000/svg" width="31" height="32" viewBox="0 0 31 32">
  <g id="Group_1153" data-name="Group 1153" transform="translate(-193.518 -190.628)">
    <g id="Group_4" data-name="Group 4" transform="translate(194 191)">
      <rect id="Rectangle_7" data-name="Rectangle 7" width="31" height="32" rx="15.5" transform="translate(-0.482 -0.372)" fill="#818181"/>
    </g>
    <g id="ic_photo_camera_24px" transform="translate(200.324 198.153)">
      <circle id="Ellipse_16" data-name="Ellipse 16" cx="2.302" cy="2.302" r="2.302" transform="translate(6.892 6.892)" fill="#fff"/>
      <path id="Path_92" data-name="Path 92" d="M7.036,2,5.719,3.439H3.439A1.443,1.443,0,0,0,2,4.877V13.51a1.443,1.443,0,0,0,1.439,1.439h11.51a1.443,1.443,0,0,0,1.439-1.439V4.877a1.443,1.443,0,0,0-1.439-1.439h-2.28L11.352,2ZM9.194,12.79a3.6,3.6,0,1,1,3.6-3.6A3.6,3.6,0,0,1,9.194,12.79Z" fill="#fff"/>
    </g>
  </g>
</svg>
